<svg id="Ebene_1" data-name="Ebene 1" xmlns="http://www.w3.org/2000/svg" viewBox="0 0 173.67 125.99"><defs><style>.cls-1{fill:#686969;}.cls-2{fill:#c8414b;}</style></defs><title>DMA_Logo_RGB</title><path class="cls-1" d="M32.42,131.78h-4v-12h4c3.9,0,6.54,2.2,6.54,6S36.33,131.78,32.42,131.78Zm0-9.94H30.87v7.84h1.57a3.92,3.92,0,1,0,0-7.84Z" transform="translate(-13.44 -50.46)"/><path class="cls-1" d="M50,130H44.8l-.69,1.79H41.53l4.87-12h2l4.87,12H50.68Zm-4.4-2.06H49.2l-1.81-4.68Z" transform="translate(-13.44 -50.46)"/><path class="cls-1" d="M58.53,121.84H55.31v-2.1h8.91v2.1H61v9.94H58.53Z" transform="translate(-13.44 -50.46)"/><path class="cls-1" d="M74.74,130H69.55l-.69,1.79H66.28l4.87-12h2l4.87,12H75.43Zm-4.4-2.06h3.61l-1.81-4.68Z" transform="translate(-13.44 -50.46)"/><path class="cls-1" d="M94.28,129.23H93l-3.72-5v7.52H86.85v-12h1.86l5,6.64,5-6.64h1.86v12H98v-7.52Z" transform="translate(-13.44 -50.46)"/><path class="cls-1" d="M113.05,130h-5.19l-.69,1.79h-2.58l4.87-12h2l4.87,12h-2.58Zm-4.4-2.06h3.61l-1.81-4.68Z" transform="translate(-13.44 -50.46)"/><path class="cls-1" d="M122.92,131.78h-2.48v-12h4.15c3,0,4.75,1.86,4.75,4.21a3.79,3.79,0,0,1-2.24,3.58,4.85,4.85,0,0,1,2.12,3.89l0,.36h-2.41l0-.33c-.21-2-1.32-3.18-3-3.18h-.88Zm0-5.57h1.62a2.2,2.2,0,1,0,0-4.4h-1.62Z" transform="translate(-13.44 -50.46)"/><path class="cls-1" d="M136.61,125.52h1.16l2.49-5.78H143l-2.82,6.3c1.73.84,2.73,2.69,3,5.21l.05.53h-2.41l-.05-.5c-.29-2.82-1.39-3.7-3.23-3.7h-.88v4.2h-2.48v-12h2.48Z" transform="translate(-13.44 -50.46)"/><path class="cls-1" d="M147.82,119.74h7.4v2.1h-4.92v3.23h4.13v2.1h-4.13v2.51h5.07v2.1h-7.55Z" transform="translate(-13.44 -50.46)"/><path class="cls-1" d="M162.7,121.84h-3.22v-2.1h8.91v2.1h-3.22v9.94H162.7Z" transform="translate(-13.44 -50.46)"/><path class="cls-2" d="M74.53,146.55H71.34l-.42,1.1H69.33l3-7.39h1.23l3,7.39H75Zm-2.7-1.27H74l-1.11-2.87Z" transform="translate(-13.44 -50.46)"/><path class="cls-2" d="M79.35,144.52v-4.27h1.52v4.36c0,1.3.76,1.85,1.58,1.85s1.58-.55,1.58-1.85v-4.36h1.52v4.27a3.11,3.11,0,1,1-6.21,0Z" transform="translate(-13.44 -50.46)"/><path class="cls-2" d="M89.11,145.68h1.54a.84.84,0,0,0,.94.78.77.77,0,0,0,.86-.78c0-.48-.3-.75-1.3-1.16-1.47-.61-2-1.31-2-2.39s.89-2,2.31-2a2.09,2.09,0,0,1,2.31,2.07H92.24a.72.72,0,0,0-.79-.76.66.66,0,0,0-.75.68c0,.44.31.7,1.34,1.15,1.48.63,2,1.3,2,2.33a2.16,2.16,0,0,1-2.42,2.18A2.25,2.25,0,0,1,89.11,145.68Z" transform="translate(-13.44 -50.46)"/><path class="cls-2" d="M98.83,141.54h-2v-1.29h5.47v1.29h-2v6.11H98.83Z" transform="translate(-13.44 -50.46)"/><path class="cls-2" d="M107.24,147.64h-1.52v-7.39h2.55a2.63,2.63,0,0,1,2.92,2.59,2.33,2.33,0,0,1-1.37,2.2,3,3,0,0,1,1.3,2.39l0,.22h-1.48l0-.2c-.13-1.21-.81-2-1.85-2h-.54Zm0-3.42h1a1.35,1.35,0,1,0,0-2.7h-1Z" transform="translate(-13.44 -50.46)"/><path class="cls-2" d="M116.25,140.25v7.39h-1.52v-7.39Z" transform="translate(-13.44 -50.46)"/><path class="cls-2" d="M124.57,146.55h-3.19l-.42,1.1h-1.58l3-7.39h1.23l3,7.39H125Zm-2.7-1.27h2.22L123,142.4Z" transform="translate(-13.44 -50.46)"/><circle class="cls-2" cx="80.14" cy="71.51" r="3.69" transform="translate(-40.53 27.15) rotate(-45)"/><circle class="cls-2" cx="88.83" cy="62.81" r="3.69" transform="translate(-31.83 30.75) rotate(-45)"/><circle class="cls-2" cx="80.14" cy="88.89" r="3.69" transform="translate(-52.82 32.24) rotate(-45)"/><path class="cls-2" d="M86.23,77.59a3.51,3.51,0,0,0-1,2.36h-10v.28a3.6,3.6,0,0,0-1.08-2.61,3.69,3.69,0,1,0,0,5.18,3.6,3.6,0,0,0,1.08-2.61v.28h10a3.51,3.51,0,0,0,1,2.36,3.69,3.69,0,0,0,5.22-5.22A3.67,3.67,0,0,0,86.23,77.59ZM73.71,82.46a3.2,3.2,0,1,1,0-4.52A3.19,3.19,0,0,1,73.71,82.46Zm17.39,0a3.2,3.2,0,1,1,0-4.52A3.19,3.19,0,0,1,91.09,82.46Z" transform="translate(-13.44 -50.46)"/><path class="cls-2" d="M103.61,60.21l.17-.17-3.48-3.48-.17.17-.17.17,3.48,3.48.17-.17a3.69,3.69,0,1,0,5.22,0A3.71,3.71,0,0,0,103.61,60.21Zm4.87,4.87a3.2,3.2,0,1,1,0-4.52A3.19,3.19,0,0,1,108.48,65.08Z" transform="translate(-13.44 -50.46)"/><circle class="cls-2" cx="97.53" cy="88.89" r="3.69" transform="translate(-47.73 44.54) rotate(-45)"/><path class="cls-2" d="M103.61,77.59a3.69,3.69,0,1,0,5.22,0A3.71,3.71,0,0,0,103.61,77.59Zm4.87,4.87a3.2,3.2,0,1,1,0-4.52A3.19,3.19,0,0,1,108.48,82.46Z" transform="translate(-13.44 -50.46)"/><circle class="cls-2" cx="114.91" cy="71.51" r="3.69" transform="translate(-30.34 51.74) rotate(-45)"/><circle class="cls-2" cx="97.53" cy="106.28" r="3.69" transform="translate(-60.02 49.63) rotate(-45)"/><path class="cls-2" d="M103.61,95a3.63,3.63,0,0,0-1.08,2.4v-.07l-10,0h0A3.7,3.7,0,0,0,89,93.87h.07v-10h-.49l0,10h.07A3.63,3.63,0,0,0,86.23,95a3.69,3.69,0,0,0,5.22,5.22,3.63,3.63,0,0,0,1.08-2.4v.07h10v-.07a3.63,3.63,0,0,0,1.08,2.4,3.69,3.69,0,1,0,0-5.22ZM91.09,99.85a3.2,3.2,0,1,1,0-4.52A3.19,3.19,0,0,1,91.09,99.85Zm17.39,0a3.2,3.2,0,1,1,0-4.52A3.19,3.19,0,0,1,108.48,99.85Z" transform="translate(-13.44 -50.46)"/><circle class="cls-2" cx="114.91" cy="88.89" r="3.69" transform="translate(-42.64 56.83) rotate(-45)"/><circle class="cls-2" cx="123.61" cy="80.2" r="3.69" transform="translate(-33.94 60.43) rotate(-45)"/><path class="cls-2" d="M97.77,67.86v-10h-.28a3.6,3.6,0,0,0,2.61-1.08,3.71,3.71,0,0,0,0-5.22,3.67,3.67,0,0,0-5.18,0,3.71,3.71,0,0,0,0,5.22,3.6,3.6,0,0,0,2.61,1.08h-.28l0,10h.07A3.63,3.63,0,0,0,95,68.93a3.69,3.69,0,1,0,5.22,0,3.46,3.46,0,0,0-2.4-1.08Zm-2.5-16a3.2,3.2,0,1,1,0,4.52A3.19,3.19,0,0,1,95.27,51.86Zm4.52,21.91a3.2,3.2,0,1,1,0-4.52A3.19,3.19,0,0,1,99.79,73.77Z" transform="translate(-13.44 -50.46)"/><polygon class="cls-2" points="86.52 18.26 86.7 18.44 86.87 18.61 90.35 15.13 90.17 14.96 90 14.79 86.52 18.26"/><polygon class="cls-2" points="77.83 26.96 78 27.13 78.18 27.3 81.66 23.83 81.48 23.65 81.31 23.48 77.83 26.96"/><rect class="cls-2" x="101.63" y="73.4" width="0.49" height="4.92" transform="translate(-37.24 43.79) rotate(-45)"/><path class="cls-1" d="M16.24,162.88a2.65,2.65,0,0,1-1.13-.24,2.52,2.52,0,0,1-.89-.68,3.2,3.2,0,0,1-.57-1.08,4.63,4.63,0,0,1-.21-1.43,4.53,4.53,0,0,1,.21-1.41,3.1,3.1,0,0,1,.57-1.06,2.47,2.47,0,0,1,.89-.67,2.75,2.75,0,0,1,1.13-.23,2.71,2.71,0,0,1,1.14.23,2.59,2.59,0,0,1,.89.67,3.08,3.08,0,0,1,.58,1.06,4.49,4.49,0,0,1,.21,1.4,4.63,4.63,0,0,1-.21,1.43,3.16,3.16,0,0,1-.58,1.08,2.56,2.56,0,0,1-.89.68A2.65,2.65,0,0,1,16.24,162.88Zm0-.73A1.67,1.67,0,0,0,17,162a1.79,1.79,0,0,0,.61-.55,2.71,2.71,0,0,0,.4-.85,4.1,4.1,0,0,0,.14-1.12,4,4,0,0,0-.14-1.1,2.54,2.54,0,0,0-.4-.83A1.81,1.81,0,0,0,17,157a1.81,1.81,0,0,0-1.59,0,1.8,1.8,0,0,0-.61.53,2.53,2.53,0,0,0-.4.83,4,4,0,0,0-.14,1.1,4.1,4.1,0,0,0,.14,1.12,2.7,2.7,0,0,0,.4.85,1.78,1.78,0,0,0,.61.55A1.67,1.67,0,0,0,16.24,162.15Zm-.86-6.54a.47.47,0,0,1-.35-.14.5.5,0,0,1,.71-.71.51.51,0,0,1,0,.71A.48.48,0,0,1,15.38,155.61Zm1.72,0a.48.48,0,0,1-.49-.49.47.47,0,0,1,.14-.35.5.5,0,0,1,.71.71A.47.47,0,0,1,17.1,155.61Z" transform="translate(-13.44 -50.46)"/><path class="cls-1" d="M20.25,161.66a3.34,3.34,0,0,0,.66.42,1.78,1.78,0,0,0,.77.16,1,1,0,0,0,.72-.22.7.7,0,0,0,.24-.54.55.55,0,0,0-.1-.33,1,1,0,0,0-.25-.25,1.94,1.94,0,0,0-.35-.18l-.4-.16-.52-.2a2.08,2.08,0,0,1-.47-.28,1.4,1.4,0,0,1-.33-.38,1,1,0,0,1-.13-.53,1.31,1.31,0,0,1,.11-.54,1.27,1.27,0,0,1,.33-.44,1.56,1.56,0,0,1,.53-.29,2.34,2.34,0,0,1,1.54.05,2.64,2.64,0,0,1,.67.39l-.39.52a2.61,2.61,0,0,0-.52-.31,1.45,1.45,0,0,0-.59-.12.94.94,0,0,0-.68.21.66.66,0,0,0-.21.49.49.49,0,0,0,.09.29.85.85,0,0,0,.24.22,1.94,1.94,0,0,0,.34.17l.41.16.52.21a2,2,0,0,1,.48.28,1.34,1.34,0,0,1,.34.4,1.16,1.16,0,0,1,.14.58,1.37,1.37,0,0,1-.12.56,1.33,1.33,0,0,1-.34.46,1.63,1.63,0,0,1-.56.32,2.34,2.34,0,0,1-.77.12,2.61,2.61,0,0,1-1-.19,3.09,3.09,0,0,1-.82-.48Z" transform="translate(-13.44 -50.46)"/><path class="cls-1" d="M24.71,158.57H24v-.62l.76,0,.1-1.36h.69v1.36h1.31v.67H25.54v2.7a1.24,1.24,0,0,0,.17.7.65.65,0,0,0,.58.25,1.1,1.1,0,0,0,.28,0l.27-.09.16.62-.44.13a2,2,0,0,1-.46.06,1.59,1.59,0,0,1-.66-.12,1.12,1.12,0,0,1-.43-.33,1.29,1.29,0,0,1-.24-.51,2.92,2.92,0,0,1-.07-.66Z" transform="translate(-13.44 -50.46)"/><path class="cls-1" d="M27.49,160.34a2.94,2.94,0,0,1,.19-1.08,2.51,2.51,0,0,1,.49-.8,2.12,2.12,0,0,1,.7-.5,2,2,0,0,1,.81-.18,2,2,0,0,1,.82.16,1.61,1.61,0,0,1,.61.46,2.11,2.11,0,0,1,.38.72,3.19,3.19,0,0,1,.13.94,2.8,2.8,0,0,1,0,.45H28.3a1.93,1.93,0,0,0,.48,1.25,1.49,1.49,0,0,0,1.14.46,1.93,1.93,0,0,0,.65-.1,2.89,2.89,0,0,0,.56-.28l.29.54a4.16,4.16,0,0,1-.71.35,2.48,2.48,0,0,1-.89.15,2.39,2.39,0,0,1-.92-.17,2.18,2.18,0,0,1-.74-.5,2.32,2.32,0,0,1-.49-.79A3,3,0,0,1,27.49,160.34Zm3.4-.37a1.8,1.8,0,0,0-.31-1.15,1.07,1.07,0,0,0-.88-.39,1.19,1.19,0,0,0-.5.11,1.37,1.37,0,0,0-.42.3,1.6,1.6,0,0,0-.32.48,2.24,2.24,0,0,0-.17.66Z" transform="translate(-13.44 -50.46)"/><path class="cls-1" d="M32.81,157.9h.68l.07.88h0a2.25,2.25,0,0,1,.6-.73,1.25,1.25,0,0,1,.77-.27,1.28,1.28,0,0,1,.52.1l-.16.72-.22-.06-.25,0a1.09,1.09,0,0,0-.65.25,2,2,0,0,0-.58.87v3.12h-.82Z" transform="translate(-13.44 -50.46)"/><path class="cls-1" d="M36.28,157.9H37l.07.88h0a2.25,2.25,0,0,1,.6-.73,1.25,1.25,0,0,1,.77-.27,1.28,1.28,0,0,1,.52.1l-.16.72-.22-.06-.25,0a1.09,1.09,0,0,0-.65.25,2,2,0,0,0-.58.87v3.12h-.82Z" transform="translate(-13.44 -50.46)"/><path class="cls-1" d="M39.29,160.34a2.93,2.93,0,0,1,.18-1.08,2.51,2.51,0,0,1,.49-.8,2.12,2.12,0,0,1,.7-.5,2,2,0,0,1,.81-.18,2,2,0,0,1,.82.16,1.61,1.61,0,0,1,.61.46,2.15,2.15,0,0,1,.38.72,3.21,3.21,0,0,1,.13.94,2.87,2.87,0,0,1,0,.45H40.1a1.94,1.94,0,0,0,.49,1.25,1.49,1.49,0,0,0,1.13.46,1.93,1.93,0,0,0,.64-.1,2.85,2.85,0,0,0,.56-.28l.29.54a4.08,4.08,0,0,1-.71.35,2.47,2.47,0,0,1-.89.15,2.39,2.39,0,0,1-.92-.17,2.19,2.19,0,0,1-.74-.5,2.32,2.32,0,0,1-.49-.79A3,3,0,0,1,39.29,160.34Zm3.4-.37a1.8,1.8,0,0,0-.32-1.15,1.07,1.07,0,0,0-.88-.39,1.19,1.19,0,0,0-.49.11,1.37,1.37,0,0,0-.43.3,1.57,1.57,0,0,0-.31.48,2.22,2.22,0,0,0-.17.66Z" transform="translate(-13.44 -50.46)"/><path class="cls-1" d="M45,156.9a.58.58,0,0,1-.41-.15.53.53,0,0,1,0-.77.64.64,0,0,1,.81,0,.53.53,0,0,1,0,.77A.58.58,0,0,1,45,156.9Zm-.42,1h.82v4.86h-.82Z" transform="translate(-13.44 -50.46)"/><path class="cls-1" d="M46.71,160.34a2.9,2.9,0,0,1,.19-1.08,2.43,2.43,0,0,1,.51-.81,2.13,2.13,0,0,1,.75-.5,2.38,2.38,0,0,1,.89-.17,1.8,1.8,0,0,1,.83.18,2.62,2.62,0,0,1,.59.4l-.41.53a2.33,2.33,0,0,0-.45-.31,1.14,1.14,0,0,0-.53-.12,1.39,1.39,0,0,0-.61.13A1.35,1.35,0,0,0,48,159a1.9,1.9,0,0,0-.32.59,2.43,2.43,0,0,0-.12.77,2.47,2.47,0,0,0,.11.76,1.84,1.84,0,0,0,.3.58,1.36,1.36,0,0,0,.48.38,1.46,1.46,0,0,0,1.25,0,2.28,2.28,0,0,0,.5-.34l.37.54a2.68,2.68,0,0,1-.74.46,2.16,2.16,0,0,1-.84.17,2.38,2.38,0,0,1-.9-.17,2,2,0,0,1-.72-.5,2.32,2.32,0,0,1-.48-.8A3.1,3.1,0,0,1,46.71,160.34Z" transform="translate(-13.44 -50.46)"/><path class="cls-1" d="M51.63,155.64h.82v1.94l0,1a4.58,4.58,0,0,1,.73-.57,1.66,1.66,0,0,1,.89-.24,1.31,1.31,0,0,1,1.13.48,2.37,2.37,0,0,1,.35,1.42v3.08h-.82v-3a1.74,1.74,0,0,0-.22-1,.8.8,0,0,0-.7-.3,1.19,1.19,0,0,0-.67.19,4.37,4.37,0,0,0-.66.56v3.52h-.82Z" transform="translate(-13.44 -50.46)"/><path class="cls-1" d="M56.94,161.66a3.32,3.32,0,0,0,.65.42,1.78,1.78,0,0,0,.78.16,1,1,0,0,0,.72-.22.7.7,0,0,0,.24-.54.55.55,0,0,0-.1-.33,1,1,0,0,0-.26-.25,2,2,0,0,0-.35-.18l-.4-.16-.52-.2a2.05,2.05,0,0,1-.46-.28,1.4,1.4,0,0,1-.33-.38,1,1,0,0,1-.13-.53,1.32,1.32,0,0,1,.12-.54,1.27,1.27,0,0,1,.33-.44,1.56,1.56,0,0,1,.53-.29,2.16,2.16,0,0,1,.7-.11,2.19,2.19,0,0,1,.84.16,2.62,2.62,0,0,1,.67.39l-.39.52a2.59,2.59,0,0,0-.52-.31,1.45,1.45,0,0,0-.59-.12.94.94,0,0,0-.67.21.66.66,0,0,0-.22.49.48.48,0,0,0,.09.29.84.84,0,0,0,.24.22,2,2,0,0,0,.35.17l.4.16.53.21a2,2,0,0,1,.47.28,1.34,1.34,0,0,1,.35.4,1.17,1.17,0,0,1,.13.58A1.36,1.36,0,0,1,60,162a1.32,1.32,0,0,1-.34.46,1.63,1.63,0,0,1-.56.32,2.34,2.34,0,0,1-.77.12,2.61,2.61,0,0,1-1-.19,3.09,3.09,0,0,1-.82-.48Z" transform="translate(-13.44 -50.46)"/><path class="cls-1" d="M62.91,160.34a3,3,0,0,1,.18-1.08,2.53,2.53,0,0,1,.49-.8,2.12,2.12,0,0,1,.7-.5,2,2,0,0,1,.81-.18,2,2,0,0,1,.83.16,1.61,1.61,0,0,1,.61.46,2.11,2.11,0,0,1,.38.72,3.21,3.21,0,0,1,.13.94,2.75,2.75,0,0,1,0,.45H63.72a1.94,1.94,0,0,0,.49,1.25,1.49,1.49,0,0,0,1.13.46,1.93,1.93,0,0,0,.65-.1,2.87,2.87,0,0,0,.56-.28l.29.54a4.11,4.11,0,0,1-.71.35,2.47,2.47,0,0,1-.89.15,2.39,2.39,0,0,1-.92-.17,2.18,2.18,0,0,1-.74-.5,2.33,2.33,0,0,1-.5-.79A3,3,0,0,1,62.91,160.34Zm3.4-.37a1.8,1.8,0,0,0-.32-1.15,1.07,1.07,0,0,0-.88-.39,1.19,1.19,0,0,0-.5.11,1.36,1.36,0,0,0-.42.3,1.59,1.59,0,0,0-.32.48,2.22,2.22,0,0,0-.17.66Z" transform="translate(-13.44 -50.46)"/><path class="cls-1" d="M68.23,157.9h.68l.07.88h0a2.26,2.26,0,0,1,.61-.73,1.25,1.25,0,0,1,.78-.27,1.28,1.28,0,0,1,.52.1l-.16.72-.22-.06-.25,0a1.09,1.09,0,0,0-.65.25,2,2,0,0,0-.58.87v3.12h-.82Z" transform="translate(-13.44 -50.46)"/><path class="cls-1" d="M71.47,161.66a3.32,3.32,0,0,0,.65.42,1.78,1.78,0,0,0,.78.16,1,1,0,0,0,.72-.22.7.7,0,0,0,.24-.54.55.55,0,0,0-.1-.33,1,1,0,0,0-.26-.25,2,2,0,0,0-.35-.18l-.4-.16-.52-.2a2.05,2.05,0,0,1-.46-.28,1.4,1.4,0,0,1-.33-.38,1,1,0,0,1-.13-.53,1.32,1.32,0,0,1,.12-.54,1.27,1.27,0,0,1,.33-.44,1.56,1.56,0,0,1,.53-.29,2.16,2.16,0,0,1,.7-.11,2.19,2.19,0,0,1,.84.16,2.62,2.62,0,0,1,.67.39l-.39.52a2.59,2.59,0,0,0-.52-.31,1.45,1.45,0,0,0-.59-.12.94.94,0,0,0-.67.21.66.66,0,0,0-.22.49.48.48,0,0,0,.09.29.84.84,0,0,0,.24.22,2,2,0,0,0,.35.17l.4.16.53.21a2,2,0,0,1,.47.28,1.34,1.34,0,0,1,.35.4,1.17,1.17,0,0,1,.13.58,1.36,1.36,0,0,1-.12.56,1.32,1.32,0,0,1-.34.46,1.63,1.63,0,0,1-.56.32,2.34,2.34,0,0,1-.77.12,2.61,2.61,0,0,1-1-.19,3.09,3.09,0,0,1-.82-.48Z" transform="translate(-13.44 -50.46)"/><path class="cls-1" d="M75.93,158.57h-.72v-.62l.76,0,.1-1.36h.69v1.36h1.31v.67H76.76v2.7a1.24,1.24,0,0,0,.17.7.65.65,0,0,0,.58.25,1.11,1.11,0,0,0,.28,0l.27-.09.16.62-.43.13a2,2,0,0,1-.47.06,1.58,1.58,0,0,1-.65-.12,1.13,1.13,0,0,1-.43-.33,1.29,1.29,0,0,1-.23-.51,2.89,2.89,0,0,1-.07-.66Z" transform="translate(-13.44 -50.46)"/><path class="cls-1" d="M78.71,160.34a3,3,0,0,1,.18-1.08,2.53,2.53,0,0,1,.49-.8,2.12,2.12,0,0,1,.7-.5,2,2,0,0,1,.81-.18,2,2,0,0,1,.83.16,1.61,1.61,0,0,1,.61.46,2.11,2.11,0,0,1,.38.72,3.21,3.21,0,0,1,.13.94,2.75,2.75,0,0,1,0,.45H79.52a1.94,1.94,0,0,0,.49,1.25,1.49,1.49,0,0,0,1.13.46,1.93,1.93,0,0,0,.65-.1,2.87,2.87,0,0,0,.56-.28l.29.54a4.11,4.11,0,0,1-.71.35,2.47,2.47,0,0,1-.89.15,2.39,2.39,0,0,1-.92-.17,2.18,2.18,0,0,1-.74-.5,2.33,2.33,0,0,1-.5-.79A3,3,0,0,1,78.71,160.34Zm3.4-.37a1.8,1.8,0,0,0-.32-1.15,1.07,1.07,0,0,0-.88-.39,1.19,1.19,0,0,0-.5.11,1.36,1.36,0,0,0-.42.3,1.59,1.59,0,0,0-.32.48,2.22,2.22,0,0,0-.17.66Z" transform="translate(-13.44 -50.46)"/><path class="cls-1" d="M83.9,161.66a3.32,3.32,0,0,0,.65.42,1.78,1.78,0,0,0,.78.16,1,1,0,0,0,.72-.22.7.7,0,0,0,.24-.54.55.55,0,0,0-.1-.33,1,1,0,0,0-.26-.25,2,2,0,0,0-.35-.18l-.4-.16-.52-.2a2.05,2.05,0,0,1-.46-.28,1.4,1.4,0,0,1-.33-.38,1,1,0,0,1-.13-.53,1.32,1.32,0,0,1,.12-.54,1.27,1.27,0,0,1,.33-.44,1.56,1.56,0,0,1,.53-.29,2.16,2.16,0,0,1,.7-.11,2.19,2.19,0,0,1,.84.16,2.62,2.62,0,0,1,.67.39l-.39.52a2.59,2.59,0,0,0-.52-.31,1.45,1.45,0,0,0-.59-.12.94.94,0,0,0-.67.21.66.66,0,0,0-.22.49.48.48,0,0,0,.09.29.84.84,0,0,0,.24.22,2,2,0,0,0,.35.17l.4.16.53.21a2,2,0,0,1,.47.28,1.34,1.34,0,0,1,.35.4,1.17,1.17,0,0,1,.13.58A1.36,1.36,0,0,1,87,162a1.32,1.32,0,0,1-.34.46,1.63,1.63,0,0,1-.56.32,2.34,2.34,0,0,1-.77.12,2.61,2.61,0,0,1-1-.19,3.09,3.09,0,0,1-.82-.48Z" transform="translate(-13.44 -50.46)"/><path class="cls-1" d="M89.89,160.34a3.07,3.07,0,0,1,.17-1.06,2.53,2.53,0,0,1,.47-.81,2.06,2.06,0,0,1,.67-.51,1.84,1.84,0,0,1,.8-.18,1.66,1.66,0,0,1,.73.15,3.23,3.23,0,0,1,.63.41l0-.83v-1.87h.83v7.12h-.68l-.07-.57h0a3,3,0,0,1-.67.49,1.65,1.65,0,0,1-.8.21,1.8,1.8,0,0,1-1.47-.66A2.88,2.88,0,0,1,89.89,160.34Zm.85,0a2.32,2.32,0,0,0,.35,1.37,1.14,1.14,0,0,0,1,.49,1.31,1.31,0,0,0,.64-.16,2.34,2.34,0,0,0,.6-.51V159a2.06,2.06,0,0,0-.6-.4,1.54,1.54,0,0,0-.58-.12,1.14,1.14,0,0,0-.54.14,1.36,1.36,0,0,0-.44.38,1.91,1.91,0,0,0-.3.59A2.46,2.46,0,0,0,90.74,160.33Z" transform="translate(-13.44 -50.46)"/><path class="cls-1" d="M96.21,156.9a.58.58,0,0,1-.41-.15.53.53,0,0,1,0-.77.64.64,0,0,1,.81,0,.53.53,0,0,1,0,.77A.58.58,0,0,1,96.21,156.9Zm-.42,1h.82v4.86h-.82Z" transform="translate(-13.44 -50.46)"/><path class="cls-1" d="M97.88,163.69a1,1,0,0,1,.19-.59,2,2,0,0,1,.52-.51v0a.94.94,0,0,1-.3-.31,1,1,0,0,1,0-1,1.53,1.53,0,0,1,.36-.36v0a2,2,0,0,1-.43-.54,1.52,1.52,0,0,1-.2-.78,1.73,1.73,0,0,1,.15-.72,1.62,1.62,0,0,1,.39-.54,1.75,1.75,0,0,1,.58-.34,2.07,2.07,0,0,1,.71-.12,1.9,1.9,0,0,1,.37,0l.32.09h1.69v.63h-1a1.42,1.42,0,0,1,.29.43,1.4,1.4,0,0,1,.12.57,1.71,1.71,0,0,1-.14.71,1.53,1.53,0,0,1-.38.53,1.74,1.74,0,0,1-.56.33,2,2,0,0,1-.7.12,1.59,1.59,0,0,1-.37,0,1.82,1.82,0,0,1-.36-.12,1.19,1.19,0,0,0-.22.25.59.59,0,0,0-.09.33A.48.48,0,0,0,99,162a1.11,1.11,0,0,0,.68.15h.94a2.38,2.38,0,0,1,1.27.27,1,1,0,0,1,.42.89,1.3,1.3,0,0,1-.17.64,1.66,1.66,0,0,1-.49.54,2.61,2.61,0,0,1-.77.37,3.61,3.61,0,0,1-1,.13,3.68,3.68,0,0,1-.82-.08,2,2,0,0,1-.63-.25,1.27,1.27,0,0,1-.41-.41A1.06,1.06,0,0,1,97.88,163.69Zm.72-.11a.7.7,0,0,0,.38.62,2,2,0,0,0,1,.23,2.21,2.21,0,0,0,.63-.08,1.76,1.76,0,0,0,.48-.22,1,1,0,0,0,.31-.32.7.7,0,0,0,.11-.37.48.48,0,0,0-.25-.47,1.62,1.62,0,0,0-.73-.13h-.84l-.3,0a1.55,1.55,0,0,1-.33-.06,1.32,1.32,0,0,0-.38.4A.84.84,0,0,0,98.6,163.58Zm1.29-2.91a1,1,0,0,0,.72-.31,1,1,0,0,0,.23-.37,1.39,1.39,0,0,0,.08-.48,1.12,1.12,0,0,0-.3-.83,1.05,1.05,0,0,0-1.46,0,1.12,1.12,0,0,0-.3.83,1.39,1.39,0,0,0,.08.48,1,1,0,0,0,.23.37,1,1,0,0,0,.72.31Z" transform="translate(-13.44 -50.46)"/><path class="cls-1" d="M103.71,156.9a.58.58,0,0,1-.41-.15.53.53,0,0,1,0-.77.64.64,0,0,1,.81,0,.53.53,0,0,1,0,.77A.58.58,0,0,1,103.71,156.9Zm-.42,1h.82v4.86h-.82Z" transform="translate(-13.44 -50.46)"/><path class="cls-1" d="M105.89,158.57h-.72v-.62l.76,0,.1-1.36h.69v1.36H108v.67h-1.31v2.7a1.24,1.24,0,0,0,.17.7.65.65,0,0,0,.58.25,1.11,1.11,0,0,0,.28,0l.27-.09.16.62-.43.13a2,2,0,0,1-.47.06,1.58,1.58,0,0,1-.65-.12,1.13,1.13,0,0,1-.43-.33,1.29,1.29,0,0,1-.23-.51,2.89,2.89,0,0,1-.07-.66Z" transform="translate(-13.44 -50.46)"/><path class="cls-1" d="M108.71,161.5a1.35,1.35,0,0,1,.71-1.22,5.91,5.91,0,0,1,2.28-.6,2.28,2.28,0,0,0,0-.45,1.08,1.08,0,0,0-.16-.39.88.88,0,0,0-.31-.28,1,1,0,0,0-.49-.1,2,2,0,0,0-.79.16,3.93,3.93,0,0,0-.66.36l-.33-.57a5.3,5.3,0,0,1,.83-.43,2.77,2.77,0,0,1,1.08-.21,1.49,1.49,0,0,1,1.29.54,2.41,2.41,0,0,1,.4,1.46v3h-.68l-.07-.58h0a4.06,4.06,0,0,1-.75.5,1.87,1.87,0,0,1-.86.21,1.48,1.48,0,0,1-1-.36A1.29,1.29,0,0,1,108.71,161.5Zm.81-.06a.69.69,0,0,0,.25.6,1,1,0,0,0,.61.18,1.42,1.42,0,0,0,.67-.17,3.23,3.23,0,0,0,.67-.48v-1.35a8.41,8.41,0,0,0-1,.19,2.7,2.7,0,0,0-.67.26,1,1,0,0,0-.37.34A.85.85,0,0,0,109.52,161.44Z" transform="translate(-13.44 -50.46)"/><path class="cls-1" d="M114.07,155.64h.82v6.2a.43.43,0,0,0,.07.28.2.2,0,0,0,.16.08h.08l.1,0,.11.62-.19.06-.28,0a.77.77,0,0,1-.67-.28,1.41,1.41,0,0,1-.2-.82Z" transform="translate(-13.44 -50.46)"/><path class="cls-1" d="M116.26,160.34a3,3,0,0,1,.18-1.08,2.53,2.53,0,0,1,.49-.8,2.12,2.12,0,0,1,.7-.5,2,2,0,0,1,.81-.18,2,2,0,0,1,.83.16,1.61,1.61,0,0,1,.61.46,2.11,2.11,0,0,1,.38.72,3.21,3.21,0,0,1,.13.94,2.75,2.75,0,0,1,0,.45h-3.28a1.94,1.94,0,0,0,.49,1.25,1.49,1.49,0,0,0,1.13.46,1.93,1.93,0,0,0,.65-.1,2.87,2.87,0,0,0,.56-.28l.29.54a4.11,4.11,0,0,1-.71.35,2.47,2.47,0,0,1-.89.15,2.39,2.39,0,0,1-.92-.17,2.18,2.18,0,0,1-.74-.5,2.33,2.33,0,0,1-.5-.79A3,3,0,0,1,116.26,160.34Zm3.4-.37a1.8,1.8,0,0,0-.32-1.15,1.07,1.07,0,0,0-.88-.39,1.19,1.19,0,0,0-.5.11,1.36,1.36,0,0,0-.42.3,1.59,1.59,0,0,0-.32.48,2.22,2.22,0,0,0-.17.66Z" transform="translate(-13.44 -50.46)"/><path class="cls-1" d="M121.45,161.66a3.32,3.32,0,0,0,.65.42,1.78,1.78,0,0,0,.78.16,1,1,0,0,0,.72-.22.7.7,0,0,0,.24-.54.55.55,0,0,0-.1-.33,1,1,0,0,0-.26-.25,2,2,0,0,0-.35-.18l-.4-.16-.52-.2a2.05,2.05,0,0,1-.46-.28,1.4,1.4,0,0,1-.33-.38,1,1,0,0,1-.13-.53,1.32,1.32,0,0,1,.12-.54,1.27,1.27,0,0,1,.33-.44,1.56,1.56,0,0,1,.53-.29,2.16,2.16,0,0,1,.7-.11,2.19,2.19,0,0,1,.84.16,2.62,2.62,0,0,1,.67.39l-.39.52a2.59,2.59,0,0,0-.52-.31,1.45,1.45,0,0,0-.59-.12.94.94,0,0,0-.67.21.66.66,0,0,0-.22.49.48.48,0,0,0,.09.29.84.84,0,0,0,.24.22,2,2,0,0,0,.35.17l.4.16.53.21a2,2,0,0,1,.47.28,1.34,1.34,0,0,1,.35.4,1.17,1.17,0,0,1,.13.58,1.36,1.36,0,0,1-.12.56,1.32,1.32,0,0,1-.34.46,1.63,1.63,0,0,1-.56.32,2.34,2.34,0,0,1-.77.12,2.61,2.61,0,0,1-1-.19,3.09,3.09,0,0,1-.82-.48Z" transform="translate(-13.44 -50.46)"/><path class="cls-1" d="M130.29,162.88a2.65,2.65,0,0,1-1.14-.24,2.52,2.52,0,0,1-.88-.68,3.22,3.22,0,0,1-.58-1.08,4.63,4.63,0,0,1-.21-1.43,4.53,4.53,0,0,1,.21-1.41,3.12,3.12,0,0,1,.58-1.06,2.48,2.48,0,0,1,.88-.67,2.75,2.75,0,0,1,1.14-.23,2.71,2.71,0,0,1,1.13.23,2.6,2.6,0,0,1,.89.67,3.08,3.08,0,0,1,.58,1.06,4.49,4.49,0,0,1,.21,1.4,4.63,4.63,0,0,1-.21,1.43,3.16,3.16,0,0,1-.58,1.08,2.57,2.57,0,0,1-.89.68A2.65,2.65,0,0,1,130.29,162.88Zm0-.73a1.67,1.67,0,0,0,.79-.19,1.79,1.79,0,0,0,.61-.55,2.71,2.71,0,0,0,.4-.85,4.12,4.12,0,0,0,.14-1.12,4,4,0,0,0-.14-1.1,2.54,2.54,0,0,0-.4-.83,1.81,1.81,0,0,0-.61-.53,1.8,1.8,0,0,0-1.59,0,1.8,1.8,0,0,0-.61.53,2.54,2.54,0,0,0-.4.83,4,4,0,0,0-.14,1.1,4.12,4.12,0,0,0,.14,1.12,2.71,2.71,0,0,0,.4.85,1.78,1.78,0,0,0,.61.55A1.66,1.66,0,0,0,130.29,162.15Zm-.86-6.54a.47.47,0,0,1-.35-.14.5.5,0,0,1,.7-.71.51.51,0,0,1,0,.71A.48.48,0,0,1,129.43,155.61Zm1.72,0a.48.48,0,0,1-.49-.49.47.47,0,0,1,.14-.35.5.5,0,0,1,.71.71A.47.47,0,0,1,131.15,155.61Z" transform="translate(-13.44 -50.46)"/><path class="cls-1" d="M134.43,155.64h.81v4.82h0l2.07-2.56h.91l-1.63,1.95,1.85,2.91h-.9l-1.42-2.34-.91,1.06v1.28h-.81Z" transform="translate(-13.44 -50.46)"/><path class="cls-1" d="M138.84,160.34a3,3,0,0,1,.18-1.08,2.49,2.49,0,0,1,.5-.81,2.09,2.09,0,0,1,.72-.5,2.24,2.24,0,0,1,1.71,0,2.1,2.1,0,0,1,.71.5,2.49,2.49,0,0,1,.5.81,3,3,0,0,1,.18,1.08,2.94,2.94,0,0,1-.18,1.07,2.43,2.43,0,0,1-.5.8,2.11,2.11,0,0,1-.71.5,2.24,2.24,0,0,1-1.71,0,2.11,2.11,0,0,1-.72-.5,2.43,2.43,0,0,1-.5-.8A2.94,2.94,0,0,1,138.84,160.34Zm.85,0a2.7,2.7,0,0,0,.1.76,1.79,1.79,0,0,0,.29.58,1.31,1.31,0,0,0,.44.38,1.27,1.27,0,0,0,1.14,0,1.31,1.31,0,0,0,.44-.38,1.79,1.79,0,0,0,.29-.58,2.7,2.7,0,0,0,.1-.76,2.76,2.76,0,0,0-.1-.77,1.83,1.83,0,0,0-.29-.59,1.28,1.28,0,0,0-.44-.39,1.27,1.27,0,0,0-1.14,0,1.28,1.28,0,0,0-.44.39,1.83,1.83,0,0,0-.29.59A2.76,2.76,0,0,0,139.69,160.34Z" transform="translate(-13.44 -50.46)"/><path class="cls-1" d="M144.49,161.66a3.32,3.32,0,0,0,.65.42,1.78,1.78,0,0,0,.78.16,1,1,0,0,0,.72-.22.7.7,0,0,0,.24-.54.55.55,0,0,0-.1-.33,1,1,0,0,0-.26-.25,2,2,0,0,0-.35-.18l-.4-.16-.52-.2a2.05,2.05,0,0,1-.46-.28,1.4,1.4,0,0,1-.33-.38,1,1,0,0,1-.13-.53,1.32,1.32,0,0,1,.12-.54,1.27,1.27,0,0,1,.33-.44,1.56,1.56,0,0,1,.53-.29,2.16,2.16,0,0,1,.7-.11,2.19,2.19,0,0,1,.84.16,2.62,2.62,0,0,1,.67.39l-.39.52a2.59,2.59,0,0,0-.52-.31,1.45,1.45,0,0,0-.59-.12.94.94,0,0,0-.67.21.66.66,0,0,0-.22.49.48.48,0,0,0,.09.29.84.84,0,0,0,.24.22,2,2,0,0,0,.35.17l.4.16.53.21a2,2,0,0,1,.47.28,1.34,1.34,0,0,1,.35.4,1.17,1.17,0,0,1,.13.58,1.36,1.36,0,0,1-.12.56,1.32,1.32,0,0,1-.34.46,1.63,1.63,0,0,1-.56.32,2.34,2.34,0,0,1-.77.12,2.61,2.61,0,0,1-1-.19,3.09,3.09,0,0,1-.82-.48Z" transform="translate(-13.44 -50.46)"/><path class="cls-1" d="M148.66,164.14l.19,0a.88.88,0,0,0,.68-.29,2.09,2.09,0,0,0,.42-.75l.11-.36-2-4.87H149l1,2.69.24.67.23.7h0q.11-.33.21-.69c.07-.24.13-.47.2-.68l.87-2.69h.8l-1.83,5.26a5.71,5.71,0,0,1-.29.67,2.22,2.22,0,0,1-.38.54,1.7,1.7,0,0,1-.5.35,1.52,1.52,0,0,1-.65.13l-.31,0a1.3,1.3,0,0,1-.26-.08l.16-.65Z" transform="translate(-13.44 -50.46)"/><path class="cls-1" d="M153.35,161.66a3.32,3.32,0,0,0,.65.42,1.78,1.78,0,0,0,.78.16,1,1,0,0,0,.72-.22.7.7,0,0,0,.24-.54.55.55,0,0,0-.1-.33,1,1,0,0,0-.26-.25,2,2,0,0,0-.35-.18l-.4-.16-.52-.2a2.05,2.05,0,0,1-.46-.28,1.4,1.4,0,0,1-.33-.38,1,1,0,0,1-.13-.53,1.32,1.32,0,0,1,.12-.54,1.27,1.27,0,0,1,.33-.44,1.56,1.56,0,0,1,.53-.29,2.16,2.16,0,0,1,.7-.11,2.19,2.19,0,0,1,.84.16,2.62,2.62,0,0,1,.67.39l-.39.52a2.59,2.59,0,0,0-.52-.31,1.45,1.45,0,0,0-.59-.12.94.94,0,0,0-.67.21.66.66,0,0,0-.22.49.48.48,0,0,0,.09.29.84.84,0,0,0,.24.22,2,2,0,0,0,.35.17l.4.16.53.21a2,2,0,0,1,.47.28,1.34,1.34,0,0,1,.35.4,1.17,1.17,0,0,1,.13.58,1.36,1.36,0,0,1-.12.56,1.32,1.32,0,0,1-.34.46,1.63,1.63,0,0,1-.56.32,2.34,2.34,0,0,1-.77.12,2.61,2.61,0,0,1-1-.19,3.09,3.09,0,0,1-.82-.48Z" transform="translate(-13.44 -50.46)"/><path class="cls-1" d="M157.81,158.57h-.72v-.62l.76,0,.1-1.36h.69v1.36h1.31v.67h-1.31v2.7a1.24,1.24,0,0,0,.17.7.65.65,0,0,0,.58.25,1.11,1.11,0,0,0,.28,0l.27-.09.16.62-.43.13a2,2,0,0,1-.47.06,1.58,1.58,0,0,1-.65-.12,1.13,1.13,0,0,1-.43-.33,1.29,1.29,0,0,1-.23-.51,2.89,2.89,0,0,1-.07-.66Z" transform="translate(-13.44 -50.46)"/><path class="cls-1" d="M160.59,160.34a3,3,0,0,1,.18-1.08,2.53,2.53,0,0,1,.49-.8,2.12,2.12,0,0,1,.7-.5,2,2,0,0,1,.81-.18,2,2,0,0,1,.83.16,1.61,1.61,0,0,1,.61.46,2.11,2.11,0,0,1,.38.72,3.21,3.21,0,0,1,.13.94,2.75,2.75,0,0,1,0,.45H161.4a1.94,1.94,0,0,0,.49,1.25,1.49,1.49,0,0,0,1.13.46,1.93,1.93,0,0,0,.65-.1,2.87,2.87,0,0,0,.56-.28l.29.54a4.11,4.11,0,0,1-.71.35,2.47,2.47,0,0,1-.89.15,2.39,2.39,0,0,1-.92-.17,2.18,2.18,0,0,1-.74-.5,2.33,2.33,0,0,1-.5-.79A3,3,0,0,1,160.59,160.34ZM164,160a1.8,1.8,0,0,0-.32-1.15,1.07,1.07,0,0,0-.88-.39,1.19,1.19,0,0,0-.5.11,1.36,1.36,0,0,0-.42.3,1.59,1.59,0,0,0-.32.48,2.22,2.22,0,0,0-.17.66Z" transform="translate(-13.44 -50.46)"/><path class="cls-1" d="M165.91,157.9h.68l.07.7h0a3.42,3.42,0,0,1,.7-.58,1.51,1.51,0,0,1,.82-.24,1.39,1.39,0,0,1,.88.25,1.42,1.42,0,0,1,.46.68,4.07,4.07,0,0,1,.76-.67,1.48,1.48,0,0,1,.83-.26,1.31,1.31,0,0,1,1.12.48,2.32,2.32,0,0,1,.37,1.42v3.08h-.82v-3a1.74,1.74,0,0,0-.22-1,.78.78,0,0,0-.68-.3,1.8,1.8,0,0,0-1.22.75v3.52h-.82v-3a1.74,1.74,0,0,0-.22-1,.79.79,0,0,0-.69-.3,1.8,1.8,0,0,0-1.22.75v3.52h-.82Z" transform="translate(-13.44 -50.46)"/><path class="cls-1" d="M178.41,156.31a1.36,1.36,0,0,0-.55-.12c-.45,0-.68.31-.68.94v.77h1v.67h-1v4.19h-.82v-4.19h-.66v-.62l.66,0v-.77a1.84,1.84,0,0,1,.34-1.18,1.3,1.3,0,0,1,1.08-.43,2.08,2.08,0,0,1,.44,0,2.32,2.32,0,0,1,.38.12Z" transform="translate(-13.44 -50.46)"/><path class="cls-1" d="M178.92,157.9h.83v3a1.77,1.77,0,0,0,.21,1,.79.79,0,0,0,.7.3,1.17,1.17,0,0,0,.67-.2,3.13,3.13,0,0,0,.64-.62V157.9h.82v4.86h-.68L182,162h0a3.22,3.22,0,0,1-.71.64,1.6,1.6,0,0,1-.88.24,1.32,1.32,0,0,1-1.13-.48,2.37,2.37,0,0,1-.36-1.42Zm1.11-1a.47.47,0,0,1-.36-.14.52.52,0,0,1,0-.7.47.47,0,0,1,.36-.14.49.49,0,1,1,0,1Zm1.72,0a.49.49,0,1,1,0-1,.47.47,0,0,1,.35.14.52.52,0,0,1,0,.7A.47.47,0,0,1,181.75,156.88Z" transform="translate(-13.44 -50.46)"/><path class="cls-1" d="M184.43,157.9h.68l.07.88h0a2.26,2.26,0,0,1,.61-.73,1.25,1.25,0,0,1,.78-.27,1.28,1.28,0,0,1,.52.1l-.16.72-.22-.06-.25,0a1.09,1.09,0,0,0-.65.25,2,2,0,0,0-.58.87v3.12h-.82Z" transform="translate(-13.44 -50.46)"/><path class="cls-1" d="M34.88,168.2h1.64a3,3,0,0,1,2.31.84,3.39,3.39,0,0,1,.79,2.41,4.52,4.52,0,0,1-.2,1.39,2.8,2.8,0,0,1-.59,1,2.56,2.56,0,0,1-1,.65,3.56,3.56,0,0,1-1.31.22H34.88Zm1.58,5.88a2.12,2.12,0,0,0,1.73-.69,3,3,0,0,0,.57-1.94,2.82,2.82,0,0,0-.57-1.91,2.16,2.16,0,0,0-1.73-.66h-.75v5.2Z" transform="translate(-13.44 -50.46)"/><path class="cls-1" d="M40.71,173.5a1.35,1.35,0,0,1,.71-1.23,5.91,5.91,0,0,1,2.28-.59,2.3,2.3,0,0,0,0-.45,1.08,1.08,0,0,0-.16-.39.88.88,0,0,0-.31-.28,1,1,0,0,0-.49-.1,2,2,0,0,0-.79.16,3.92,3.92,0,0,0-.66.36l-.33-.57a5.3,5.3,0,0,1,.83-.43,2.79,2.79,0,0,1,1.08-.21,1.49,1.49,0,0,1,1.29.55,2.4,2.4,0,0,1,.4,1.45v3h-.68l-.07-.58h0a4.06,4.06,0,0,1-.75.5,1.87,1.87,0,0,1-.86.21,1.48,1.48,0,0,1-1-.36A1.29,1.29,0,0,1,40.71,173.5Zm.81-.06a.7.7,0,0,0,.25.6,1,1,0,0,0,.61.18,1.41,1.41,0,0,0,.67-.17,3.23,3.23,0,0,0,.67-.49v-1.35a8.6,8.6,0,0,0-1,.19,2.66,2.66,0,0,0-.67.26,1,1,0,0,0-.37.34A.85.85,0,0,0,41.52,173.44Z" transform="translate(-13.44 -50.46)"/><path class="cls-1" d="M46.21,170.57h-.72v-.62l.76-.05.1-1.36H47v1.36h1.31v.67H47v2.7a1.24,1.24,0,0,0,.17.7.65.65,0,0,0,.58.25,1.11,1.11,0,0,0,.28,0l.27-.09.16.62-.43.13a2.08,2.08,0,0,1-.47.05,1.58,1.58,0,0,1-.65-.12,1.14,1.14,0,0,1-.43-.33,1.28,1.28,0,0,1-.23-.51,2.89,2.89,0,0,1-.07-.66Z" transform="translate(-13.44 -50.46)"/><path class="cls-1" d="M49,172.34a3,3,0,0,1,.18-1.08,2.53,2.53,0,0,1,.49-.8,2.12,2.12,0,0,1,.7-.5,2,2,0,0,1,.81-.18,2,2,0,0,1,.83.16,1.63,1.63,0,0,1,.61.46,2.12,2.12,0,0,1,.38.72,3.19,3.19,0,0,1,.13.94,2.75,2.75,0,0,1,0,.45H49.8a1.94,1.94,0,0,0,.49,1.25,1.49,1.49,0,0,0,1.13.46,1.93,1.93,0,0,0,.65-.1,2.87,2.87,0,0,0,.56-.28l.29.54a4,4,0,0,1-.71.35,2.45,2.45,0,0,1-.89.15,2.39,2.39,0,0,1-.92-.17,2.18,2.18,0,0,1-.74-.5,2.32,2.32,0,0,1-.5-.79A3,3,0,0,1,49,172.34Zm3.4-.37a1.8,1.8,0,0,0-.32-1.14,1.07,1.07,0,0,0-.88-.4,1.19,1.19,0,0,0-.5.11,1.35,1.35,0,0,0-.42.3,1.59,1.59,0,0,0-.32.48,2.23,2.23,0,0,0-.17.66Z" transform="translate(-13.44 -50.46)"/><path class="cls-1" d="M54.31,169.9H55l.07.7h0a4,4,0,0,1,.74-.58,1.69,1.69,0,0,1,.9-.24,1.31,1.31,0,0,1,1.13.48,2.37,2.37,0,0,1,.35,1.42v3.08h-.82v-3a1.74,1.74,0,0,0-.22-1,.8.8,0,0,0-.7-.3,1.19,1.19,0,0,0-.67.19,4.37,4.37,0,0,0-.66.56v3.52h-.82Z" transform="translate(-13.44 -50.46)"/><path class="cls-1" d="M59.43,176a1.69,1.69,0,0,0,.66-.5,1.14,1.14,0,0,0,.24-.72h-.1a.63.63,0,0,1-.41-.14.52.52,0,0,1-.18-.42.53.53,0,0,1,.18-.43.64.64,0,0,1,.43-.15.59.59,0,0,1,.5.26,1.21,1.21,0,0,1,.19.71,1.87,1.87,0,0,1-.35,1.13,2.25,2.25,0,0,1-1,.74Z" transform="translate(-13.44 -50.46)"/><path class="cls-1" d="M64.37,168.2h1.95a4.28,4.28,0,0,1,.92.09,2.13,2.13,0,0,1,.71.28,1.33,1.33,0,0,1,.46.5,1.53,1.53,0,0,1,.17.74,1.49,1.49,0,0,1-.28.88,1.45,1.45,0,0,1-.86.54v0a2,2,0,0,1,1.12.5,1.43,1.43,0,0,1,.4,1.07,1.85,1.85,0,0,1-.18.84,1.63,1.63,0,0,1-.51.6,2.32,2.32,0,0,1-.79.36,4,4,0,0,1-1,.12H64.37Zm1.8,2.8a2,2,0,0,0,1.21-.29,1,1,0,0,0,.37-.84.84.84,0,0,0-.39-.78,2.26,2.26,0,0,0-1.15-.24h-1V171Zm.17,3.1a2.36,2.36,0,0,0,1.32-.31,1.1,1.1,0,0,0,.47-1,1,1,0,0,0-.46-.9,2.55,2.55,0,0,0-1.33-.28H65.2v2.48Z" transform="translate(-13.44 -50.46)"/><path class="cls-1" d="M70.1,169.9h.83v3a1.77,1.77,0,0,0,.21,1,.79.79,0,0,0,.7.3,1.17,1.17,0,0,0,.67-.2,3.13,3.13,0,0,0,.64-.62V169.9H74v4.86h-.68l-.07-.76h0a3.24,3.24,0,0,1-.71.64,1.6,1.6,0,0,1-.88.24,1.32,1.32,0,0,1-1.13-.48A2.37,2.37,0,0,1,70.1,173Z" transform="translate(-13.44 -50.46)"/><path class="cls-1" d="M75.48,173.66a3.28,3.28,0,0,0,.65.42,1.78,1.78,0,0,0,.78.16,1,1,0,0,0,.72-.22.7.7,0,0,0,.24-.54.56.56,0,0,0-.1-.33,1,1,0,0,0-.26-.25,2,2,0,0,0-.35-.18l-.4-.16-.52-.21a2,2,0,0,1-.46-.28,1.4,1.4,0,0,1-.33-.39,1,1,0,0,1-.13-.53,1.32,1.32,0,0,1,.12-.54,1.25,1.25,0,0,1,.33-.44,1.57,1.57,0,0,1,.53-.29,2.16,2.16,0,0,1,.7-.11,2.19,2.19,0,0,1,.84.16,2.65,2.65,0,0,1,.67.39l-.39.52a2.63,2.63,0,0,0-.52-.31,1.43,1.43,0,0,0-.59-.12.94.94,0,0,0-.67.21.66.66,0,0,0-.22.49.49.49,0,0,0,.09.29.85.85,0,0,0,.24.22,2,2,0,0,0,.35.17l.4.16.53.21a2,2,0,0,1,.47.27,1.36,1.36,0,0,1,.35.41,1.17,1.17,0,0,1,.13.58,1.36,1.36,0,0,1-.12.56,1.33,1.33,0,0,1-.34.46,1.63,1.63,0,0,1-.56.31,2.34,2.34,0,0,1-.77.12,2.61,2.61,0,0,1-1-.19,3.06,3.06,0,0,1-.82-.48Z" transform="translate(-13.44 -50.46)"/><path class="cls-1" d="M80.22,168.9a.58.58,0,0,1-.41-.15.53.53,0,0,1,0-.77.64.64,0,0,1,.81,0,.53.53,0,0,1,0,.77A.58.58,0,0,1,80.22,168.9Zm-.42,1h.82v4.86H79.8Z" transform="translate(-13.44 -50.46)"/><path class="cls-1" d="M82.26,169.9h.68l.07.7h0a4,4,0,0,1,.74-.58,1.69,1.69,0,0,1,.9-.24,1.31,1.31,0,0,1,1.13.48,2.37,2.37,0,0,1,.35,1.42v3.08h-.82v-3a1.74,1.74,0,0,0-.22-1,.8.8,0,0,0-.7-.3,1.19,1.19,0,0,0-.67.19,4.37,4.37,0,0,0-.66.56v3.52h-.82Z" transform="translate(-13.44 -50.46)"/><path class="cls-1" d="M87.37,172.34a3,3,0,0,1,.18-1.08,2.53,2.53,0,0,1,.49-.8,2.12,2.12,0,0,1,.7-.5,2,2,0,0,1,.81-.18,2,2,0,0,1,.83.16,1.63,1.63,0,0,1,.61.46,2.12,2.12,0,0,1,.38.72,3.19,3.19,0,0,1,.13.94,2.75,2.75,0,0,1,0,.45H88.18a1.94,1.94,0,0,0,.49,1.25,1.49,1.49,0,0,0,1.13.46,1.93,1.93,0,0,0,.65-.1,2.87,2.87,0,0,0,.56-.28l.29.54a4,4,0,0,1-.71.35,2.45,2.45,0,0,1-.89.15,2.39,2.39,0,0,1-.92-.17,2.18,2.18,0,0,1-.74-.5,2.32,2.32,0,0,1-.5-.79A3,3,0,0,1,87.37,172.34Zm3.4-.37a1.8,1.8,0,0,0-.32-1.14,1.07,1.07,0,0,0-.88-.4,1.19,1.19,0,0,0-.5.11,1.35,1.35,0,0,0-.42.3,1.59,1.59,0,0,0-.32.48,2.23,2.23,0,0,0-.17.66Z" transform="translate(-13.44 -50.46)"/><path class="cls-1" d="M92.56,173.66a3.28,3.28,0,0,0,.65.42,1.78,1.78,0,0,0,.78.16,1,1,0,0,0,.72-.22.7.7,0,0,0,.24-.54.56.56,0,0,0-.1-.33,1,1,0,0,0-.26-.25,2,2,0,0,0-.35-.18l-.4-.16-.52-.21a2,2,0,0,1-.46-.28,1.4,1.4,0,0,1-.33-.39,1,1,0,0,1-.13-.53,1.32,1.32,0,0,1,.12-.54,1.25,1.25,0,0,1,.33-.44,1.57,1.57,0,0,1,.53-.29,2.16,2.16,0,0,1,.7-.11,2.19,2.19,0,0,1,.84.16,2.65,2.65,0,0,1,.67.39l-.39.52a2.63,2.63,0,0,0-.52-.31,1.43,1.43,0,0,0-.59-.12.94.94,0,0,0-.67.21.66.66,0,0,0-.22.49.49.49,0,0,0,.09.29.85.85,0,0,0,.24.22,2,2,0,0,0,.35.17l.4.16.53.21a2,2,0,0,1,.47.27,1.36,1.36,0,0,1,.35.41,1.17,1.17,0,0,1,.13.58,1.36,1.36,0,0,1-.12.56,1.33,1.33,0,0,1-.34.46,1.63,1.63,0,0,1-.56.31,2.34,2.34,0,0,1-.77.12,2.61,2.61,0,0,1-1-.19,3.06,3.06,0,0,1-.82-.48Z" transform="translate(-13.44 -50.46)"/><path class="cls-1" d="M96.75,173.66a3.28,3.28,0,0,0,.65.42,1.78,1.78,0,0,0,.78.16,1,1,0,0,0,.72-.22.7.7,0,0,0,.24-.54.56.56,0,0,0-.1-.33,1,1,0,0,0-.26-.25,2,2,0,0,0-.35-.18l-.4-.16-.52-.21a2,2,0,0,1-.46-.28,1.4,1.4,0,0,1-.33-.39,1,1,0,0,1-.13-.53,1.32,1.32,0,0,1,.12-.54,1.25,1.25,0,0,1,.33-.44,1.57,1.57,0,0,1,.53-.29,2.16,2.16,0,0,1,.7-.11,2.19,2.19,0,0,1,.84.16,2.65,2.65,0,0,1,.67.39l-.39.52a2.63,2.63,0,0,0-.52-.31,1.43,1.43,0,0,0-.59-.12.94.94,0,0,0-.67.21.66.66,0,0,0-.22.49.49.49,0,0,0,.09.29.85.85,0,0,0,.24.22,2,2,0,0,0,.35.17l.4.16.53.21a2,2,0,0,1,.47.27,1.36,1.36,0,0,1,.35.41,1.17,1.17,0,0,1,.13.58,1.36,1.36,0,0,1-.12.56,1.33,1.33,0,0,1-.34.46,1.63,1.63,0,0,1-.56.31,2.34,2.34,0,0,1-.77.12,2.61,2.61,0,0,1-1-.19,3.06,3.06,0,0,1-.82-.48Z" transform="translate(-13.44 -50.46)"/><path class="cls-1" d="M103,169.9h.83v3a1.77,1.77,0,0,0,.21,1,.79.79,0,0,0,.7.3,1.17,1.17,0,0,0,.67-.2,3.13,3.13,0,0,0,.64-.62V169.9h.82v4.86h-.68l-.07-.76h0a3.24,3.24,0,0,1-.71.64,1.6,1.6,0,0,1-.88.24,1.32,1.32,0,0,1-1.13-.48A2.37,2.37,0,0,1,103,173Z" transform="translate(-13.44 -50.46)"/><path class="cls-1" d="M108.53,169.9h.68l.07.7h0A4,4,0,0,1,110,170a1.69,1.69,0,0,1,.9-.24,1.31,1.31,0,0,1,1.13.48,2.37,2.37,0,0,1,.35,1.42v3.08h-.82v-3a1.74,1.74,0,0,0-.22-1,.8.8,0,0,0-.7-.3,1.19,1.19,0,0,0-.67.19,4.37,4.37,0,0,0-.66.56v3.52h-.82Z" transform="translate(-13.44 -50.46)"/><path class="cls-1" d="M113.65,172.34a3.08,3.08,0,0,1,.17-1.07,2.54,2.54,0,0,1,.47-.8A2.06,2.06,0,0,1,115,170a1.84,1.84,0,0,1,.8-.18,1.66,1.66,0,0,1,.73.15,3.23,3.23,0,0,1,.63.41l0-.83v-1.87h.83v7.12h-.68l-.07-.57h0a3,3,0,0,1-.67.49,1.65,1.65,0,0,1-.8.21,1.8,1.8,0,0,1-1.47-.66A2.88,2.88,0,0,1,113.65,172.34Zm.85,0a2.33,2.33,0,0,0,.35,1.37,1.15,1.15,0,0,0,1,.49,1.3,1.3,0,0,0,.64-.17,2.29,2.29,0,0,0,.6-.5V171a2.06,2.06,0,0,0-.6-.39,1.54,1.54,0,0,0-.58-.12,1.15,1.15,0,0,0-.54.13,1.37,1.37,0,0,0-.44.38,1.9,1.9,0,0,0-.3.58A2.47,2.47,0,0,0,114.5,172.33Z" transform="translate(-13.44 -50.46)"/><path class="cls-1" d="M121.65,168.2h.83v6.56h-.83Z" transform="translate(-13.44 -50.46)"/><path class="cls-1" d="M124.2,169.9h.68l.07.7h0a4,4,0,0,1,.74-.58,1.69,1.69,0,0,1,.9-.24,1.31,1.31,0,0,1,1.13.48,2.37,2.37,0,0,1,.35,1.42v3.08h-.82v-3a1.74,1.74,0,0,0-.22-1,.8.8,0,0,0-.7-.3,1.19,1.19,0,0,0-.67.19,4.37,4.37,0,0,0-.66.56v3.52h-.82Z" transform="translate(-13.44 -50.46)"/><path class="cls-1" d="M129.67,169.9h.68l.07.7h0a4,4,0,0,1,.74-.58,1.69,1.69,0,0,1,.9-.24,1.31,1.31,0,0,1,1.13.48,2.37,2.37,0,0,1,.35,1.42v3.08h-.82v-3a1.74,1.74,0,0,0-.22-1,.8.8,0,0,0-.7-.3,1.19,1.19,0,0,0-.67.19,4.37,4.37,0,0,0-.66.56v3.52h-.82Z" transform="translate(-13.44 -50.46)"/><path class="cls-1" d="M134.77,172.34a3,3,0,0,1,.18-1.08,2.49,2.49,0,0,1,.5-.8,2.07,2.07,0,0,1,.72-.5,2.22,2.22,0,0,1,1.71,0,2.07,2.07,0,0,1,.71.5,2.49,2.49,0,0,1,.5.8,3,3,0,0,1,.18,1.08,3,3,0,0,1-.18,1.08,2.43,2.43,0,0,1-.5.8,2.11,2.11,0,0,1-.71.5,2.24,2.24,0,0,1-1.71,0,2.11,2.11,0,0,1-.72-.5,2.43,2.43,0,0,1-.5-.8A3,3,0,0,1,134.77,172.34Zm.85,0a2.7,2.7,0,0,0,.1.76,1.79,1.79,0,0,0,.29.58,1.3,1.3,0,0,0,.44.38,1.27,1.27,0,0,0,1.14,0,1.3,1.3,0,0,0,.44-.38,1.79,1.79,0,0,0,.29-.58,2.7,2.7,0,0,0,.1-.76,2.75,2.75,0,0,0-.1-.76,1.84,1.84,0,0,0-.29-.6,1.29,1.29,0,0,0-.44-.38,1.27,1.27,0,0,0-1.14,0,1.29,1.29,0,0,0-.44.38,1.84,1.84,0,0,0-.29.6A2.75,2.75,0,0,0,135.62,172.34Z" transform="translate(-13.44 -50.46)"/><path class="cls-1" d="M139.81,169.9h.85l.92,2.76.23.72.22.71h0l.22-.71.22-.72.92-2.76h.81l-1.72,4.86h-1Z" transform="translate(-13.44 -50.46)"/><path class="cls-1" d="M144.74,173.5a1.35,1.35,0,0,1,.71-1.23,5.91,5.91,0,0,1,2.28-.59,2.3,2.3,0,0,0,0-.45,1.08,1.08,0,0,0-.16-.39.88.88,0,0,0-.31-.28,1,1,0,0,0-.49-.1,2,2,0,0,0-.79.16,3.92,3.92,0,0,0-.66.36l-.33-.57a5.3,5.3,0,0,1,.83-.43,2.79,2.79,0,0,1,1.08-.21,1.49,1.49,0,0,1,1.29.55,2.4,2.4,0,0,1,.4,1.45v3h-.68l-.07-.58h0a4.06,4.06,0,0,1-.75.5,1.87,1.87,0,0,1-.86.21,1.48,1.48,0,0,1-1-.36A1.29,1.29,0,0,1,144.74,173.5Zm.81-.06a.7.7,0,0,0,.25.6,1,1,0,0,0,.61.18,1.41,1.41,0,0,0,.67-.17,3.23,3.23,0,0,0,.67-.49v-1.35a8.6,8.6,0,0,0-1,.19,2.66,2.66,0,0,0-.67.26,1,1,0,0,0-.37.34A.85.85,0,0,0,145.55,173.44Z" transform="translate(-13.44 -50.46)"/><path class="cls-1" d="M150.24,170.57h-.72v-.62l.76-.05.1-1.36h.69v1.36h1.31v.67h-1.31v2.7a1.24,1.24,0,0,0,.17.7.65.65,0,0,0,.58.25,1.11,1.11,0,0,0,.28,0l.27-.09.16.62-.43.13a2.08,2.08,0,0,1-.47.05,1.58,1.58,0,0,1-.65-.12,1.14,1.14,0,0,1-.43-.33,1.28,1.28,0,0,1-.23-.51,2.89,2.89,0,0,1-.07-.66Z" transform="translate(-13.44 -50.46)"/><path class="cls-1" d="M153.9,168.9a.58.58,0,0,1-.41-.15.53.53,0,0,1,0-.77.64.64,0,0,1,.81,0,.53.53,0,0,1,0,.77A.58.58,0,0,1,153.9,168.9Zm-.42,1h.82v4.86h-.82Z" transform="translate(-13.44 -50.46)"/><path class="cls-1" d="M155.58,172.34a3,3,0,0,1,.18-1.08,2.49,2.49,0,0,1,.5-.8,2.07,2.07,0,0,1,.72-.5,2.22,2.22,0,0,1,1.71,0,2.07,2.07,0,0,1,.71.5,2.49,2.49,0,0,1,.5.8,3,3,0,0,1,.18,1.08,3,3,0,0,1-.18,1.08,2.43,2.43,0,0,1-.5.8,2.11,2.11,0,0,1-.71.5,2.24,2.24,0,0,1-1.71,0,2.11,2.11,0,0,1-.72-.5,2.43,2.43,0,0,1-.5-.8A3,3,0,0,1,155.58,172.34Zm.85,0a2.7,2.7,0,0,0,.1.76,1.79,1.79,0,0,0,.29.58,1.3,1.3,0,0,0,.44.38,1.27,1.27,0,0,0,1.14,0,1.3,1.3,0,0,0,.44-.38,1.79,1.79,0,0,0,.29-.58,2.7,2.7,0,0,0,.1-.76,2.75,2.75,0,0,0-.1-.76,1.84,1.84,0,0,0-.29-.6,1.29,1.29,0,0,0-.44-.38,1.27,1.27,0,0,0-1.14,0,1.29,1.29,0,0,0-.44.38,1.84,1.84,0,0,0-.29.6A2.75,2.75,0,0,0,156.43,172.34Z" transform="translate(-13.44 -50.46)"/><path class="cls-1" d="M161.36,169.9H162l.07.7h0a4,4,0,0,1,.74-.58,1.69,1.69,0,0,1,.9-.24,1.31,1.31,0,0,1,1.13.48,2.37,2.37,0,0,1,.35,1.42v3.08h-.82v-3a1.74,1.74,0,0,0-.22-1,.8.8,0,0,0-.7-.3,1.19,1.19,0,0,0-.67.19,4.37,4.37,0,0,0-.66.56v3.52h-.82Z" transform="translate(-13.44 -50.46)"/></svg>